# OBJ written by Mesh::writeToOBJ()

v 1 0 0
v 0.97814762592315673828125 0.2079117000102996826171875 0
v 0.913545429706573486328125 0.4067366421222686767578125 0
v 0.809017002582550048828125 0.587785243988037109375 0
v 0.6691305637359619140625 0.74314486980438232421875 0
v 0.4999999701976776123046875 0.866025447845458984375 0
v 0.3090169727802276611328125 0.951056540012359619140625 0
v 0.104528419673442840576171875 0.994521915912628173828125 0
v -0.104528509080410003662109375 0.994521915912628173828125 0
v -0.3090170323848724365234375 0.95105648040771484375 0
v -0.500000059604644775390625 0.866025388240814208984375 0
v -0.66913068294525146484375 0.743144810199737548828125 0
v -0.80901706218719482421875 0.587785184383392333984375 0
v -0.91354548931121826171875 0.4067365825176239013671875 0
v -0.97814762592315673828125 0.20791161060333251953125 0
v -1 -8.7422776573475857730954885482788e-08 0
v -0.978147566318511962890625 -0.207911789417266845703125 0
v -0.913545429706573486328125 -0.40673673152923583984375 0
v -0.8090169429779052734375 -0.58778536319732666015625 0
v -0.669130504131317138671875 -0.74314486980438232421875 0
v -0.4999999105930328369140625 -0.866025447845458984375 0
v -0.3090170919895172119140625 -0.95105648040771484375 0
v -0.1045283377170562744140625 -0.994521915912628173828125 0
v 0.104528360068798065185546875 -0.994521915912628173828125 0
v 0.309017121791839599609375 -0.95105648040771484375 0
v 0.4999999105930328369140625 -0.866025447845458984375 0
v 0.669130742549896240234375 -0.7431447505950927734375 0
v 0.8090169429779052734375 -0.587785303592681884765625 0
v 0.913545548915863037109375 -0.40673649311065673828125 0
v 0.978147566318511962890625 -0.2079117596149444580078125 0
v 0.66666662693023681640625 0 0.3333333432674407958984375
v 0.652098357677459716796875 0.13860778510570526123046875 0.3333333432674407958984375
v 0.609030246734619140625 0.271157741546630859375 0.3333333432674407958984375
v 0.539344608783721923828125 0.3918568193912506103515625 0.3333333432674407958984375
v 0.44608700275421142578125 0.49542987346649169921875 0.3333333432674407958984375
v 0.3333332836627960205078125 0.57735025882720947265625 0.3333333432674407958984375
v 0.20601131021976470947265625 0.634037673473358154296875 0.3333333432674407958984375
v 0.0696856081485748291015625 0.663014590740203857421875 0.3333333432674407958984375
v -0.0696856677532196044921875 0.663014590740203857421875 0.3333333432674407958984375
v -0.20601134002208709716796875 0.63403761386871337890625 0.3333333432674407958984375
v -0.3333333432674407958984375 0.577350199222564697265625 0.3333333432674407958984375
v -0.4460870921611785888671875 0.4954298436641693115234375 0.3333333432674407958984375
v -0.53934466838836669921875 0.3918567597866058349609375 0.3333333432674407958984375
v -0.609030306339263916015625 0.2711577117443084716796875 0.3333333432674407958984375
v -0.652098357677459716796875 0.13860772550106048583984375 0.3333333432674407958984375
v -0.66666662693023681640625 -5.8281848680508119286969304084778e-08 0.3333333432674407958984375
v -0.652098357677459716796875 -0.13860784471035003662109375 0.3333333432674407958984375
v -0.609030246734619140625 -0.271157801151275634765625 0.3333333432674407958984375
v -0.539344608783721923828125 -0.3918568789958953857421875 0.3333333432674407958984375
v -0.4460869729518890380859375 -0.49542987346649169921875 0.3333333432674407958984375
v -0.3333332538604736328125 -0.57735025882720947265625 0.3333333432674407958984375
v -0.2060113847255706787109375 -0.63403761386871337890625 0.3333333432674407958984375
v -0.069685555994510650634765625 -0.663014590740203857421875 0.3333333432674407958984375
v 0.069685570895671844482421875 -0.663014590740203857421875 0.3333333432674407958984375
v 0.20601139962673187255859375 -0.63403761386871337890625 0.3333333432674407958984375
v 0.3333332538604736328125 -0.57735025882720947265625 0.3333333432674407958984375
v 0.4460871219635009765625 -0.495429813861846923828125 0.3333333432674407958984375
v 0.539344608783721923828125 -0.391856849193572998046875 0.3333333432674407958984375
v 0.609030306339263916015625 -0.2711576521396636962890625 0.3333333432674407958984375
v 0.652098357677459716796875 -0.1386078298091888427734375 0.3333333432674407958984375
v 0.333333313465118408203125 0 0.666666686534881591796875
v 0.3260491788387298583984375 0.069303892552852630615234375 0.666666686534881591796875
v 0.3045151233673095703125 0.1355788707733154296875 0.666666686534881591796875
v 0.2696723043918609619140625 0.19592840969562530517578125 0.666666686534881591796875
v 0.223043501377105712890625 0.247714936733245849609375 0.666666686534881591796875
v 0.16666664183139801025390625 0.288675129413604736328125 0.666666686534881591796875
v 0.103005655109882354736328125 0.3170188367366790771484375 0.666666686534881591796875
v 0.03484280407428741455078125 0.3315072953701019287109375 0.666666686534881591796875
v -0.03484283387660980224609375 0.3315072953701019287109375 0.666666686534881591796875
v -0.103005670011043548583984375 0.317018806934356689453125 0.666666686534881591796875
v -0.16666667163372039794921875 0.2886750996112823486328125 0.666666686534881591796875
v -0.22304354608058929443359375 0.24771492183208465576171875 0.666666686534881591796875
v -0.269672334194183349609375 0.19592837989330291748046875 0.666666686534881591796875
v -0.3045151531696319580078125 0.13557885587215423583984375 0.666666686534881591796875
v -0.3260491788387298583984375 0.069303862750530242919921875 0.666666686534881591796875
v -0.333333313465118408203125 -2.9140924340254059643484652042389e-08 0.666666686534881591796875
v -0.3260491788387298583984375 -0.069303922355175018310546875 0.666666686534881591796875
v -0.3045151233673095703125 -0.1355789005756378173828125 0.666666686534881591796875
v -0.2696723043918609619140625 -0.19592843949794769287109375 0.666666686534881591796875
v -0.22304348647594451904296875 -0.247714936733245849609375 0.666666686534881591796875
v -0.16666662693023681640625 -0.288675129413604736328125 0.666666686534881591796875
v -0.10300569236278533935546875 -0.317018806934356689453125 0.666666686534881591796875
v -0.0348427779972553253173828125 -0.3315072953701019287109375 0.666666686534881591796875
v 0.0348427854478359222412109375 -0.3315072953701019287109375 0.666666686534881591796875
v 0.103005699813365936279296875 -0.317018806934356689453125 0.666666686534881591796875
v 0.16666662693023681640625 -0.288675129413604736328125 0.666666686534881591796875
v 0.22304356098175048828125 -0.2477149069309234619140625 0.666666686534881591796875
v 0.2696723043918609619140625 -0.1959284245967864990234375 0.666666686534881591796875
v 0.3045151531696319580078125 -0.13557882606983184814453125 0.666666686534881591796875
v 0.3260491788387298583984375 -0.06930391490459442138671875 0.666666686534881591796875
v 0 0 1

vt 0 0
vt 0.0333333350718021392822265625 0
vt 0.066666670143604278564453125 0
vt 0.100000001490116119384765625 0
vt 0.13333334028720855712890625 0
vt 0.16666667163372039794921875 0
vt 0.20000000298023223876953125 0
vt 0.23333333432674407958984375 0
vt 0.2666666805744171142578125 0
vt 0.300000011920928955078125 0
vt 0.3333333432674407958984375 0
vt 0.36666667461395263671875 0
vt 0.4000000059604644775390625 0
vt 0.433333337306976318359375 0
vt 0.4666666686534881591796875 0
vt 0.5 0
vt 0.533333361148834228515625 0
vt 0.566666662693023681640625 0
vt 0.60000002384185791015625 0
vt 0.63333332538604736328125 0
vt 0.666666686534881591796875 0
vt 0.699999988079071044921875 0
vt 0.7333333492279052734375 0
vt 0.7666666507720947265625 0
vt 0.800000011920928955078125 0
vt 0.833333313465118408203125 0
vt 0.86666667461395263671875 0
vt 0.89999997615814208984375 0
vt 0.933333337306976318359375 0
vt 0.966666638851165771484375 0
vt 1 0
vt 0 0.3333333432674407958984375
vt 0.0333333350718021392822265625 0.3333333432674407958984375
vt 0.066666670143604278564453125 0.3333333432674407958984375
vt 0.100000001490116119384765625 0.3333333432674407958984375
vt 0.13333334028720855712890625 0.3333333432674407958984375
vt 0.16666667163372039794921875 0.3333333432674407958984375
vt 0.20000000298023223876953125 0.3333333432674407958984375
vt 0.23333333432674407958984375 0.3333333432674407958984375
vt 0.2666666805744171142578125 0.3333333432674407958984375
vt 0.300000011920928955078125 0.3333333432674407958984375
vt 0.3333333432674407958984375 0.3333333432674407958984375
vt 0.36666667461395263671875 0.3333333432674407958984375
vt 0.4000000059604644775390625 0.3333333432674407958984375
vt 0.433333337306976318359375 0.3333333432674407958984375
vt 0.4666666686534881591796875 0.3333333432674407958984375
vt 0.5 0.3333333432674407958984375
vt 0.533333361148834228515625 0.3333333432674407958984375
vt 0.566666662693023681640625 0.3333333432674407958984375
vt 0.60000002384185791015625 0.3333333432674407958984375
vt 0.63333332538604736328125 0.3333333432674407958984375
vt 0.666666686534881591796875 0.3333333432674407958984375
vt 0.699999988079071044921875 0.3333333432674407958984375
vt 0.7333333492279052734375 0.3333333432674407958984375
vt 0.7666666507720947265625 0.3333333432674407958984375
vt 0.800000011920928955078125 0.3333333432674407958984375
vt 0.833333313465118408203125 0.3333333432674407958984375
vt 0.86666667461395263671875 0.3333333432674407958984375
vt 0.89999997615814208984375 0.3333333432674407958984375
vt 0.933333337306976318359375 0.3333333432674407958984375
vt 0.966666638851165771484375 0.3333333432674407958984375
vt 1 0.3333333432674407958984375
vt 0 0.666666686534881591796875
vt 0.0333333350718021392822265625 0.666666686534881591796875
vt 0.066666670143604278564453125 0.666666686534881591796875
vt 0.100000001490116119384765625 0.666666686534881591796875
vt 0.13333334028720855712890625 0.666666686534881591796875
vt 0.16666667163372039794921875 0.666666686534881591796875
vt 0.20000000298023223876953125 0.666666686534881591796875
vt 0.23333333432674407958984375 0.666666686534881591796875
vt 0.2666666805744171142578125 0.666666686534881591796875
vt 0.300000011920928955078125 0.666666686534881591796875
vt 0.3333333432674407958984375 0.666666686534881591796875
vt 0.36666667461395263671875 0.666666686534881591796875
vt 0.4000000059604644775390625 0.666666686534881591796875
vt 0.433333337306976318359375 0.666666686534881591796875
vt 0.4666666686534881591796875 0.666666686534881591796875
vt 0.5 0.666666686534881591796875
vt 0.533333361148834228515625 0.666666686534881591796875
vt 0.566666662693023681640625 0.666666686534881591796875
vt 0.60000002384185791015625 0.666666686534881591796875
vt 0.63333332538604736328125 0.666666686534881591796875
vt 0.666666686534881591796875 0.666666686534881591796875
vt 0.699999988079071044921875 0.666666686534881591796875
vt 0.7333333492279052734375 0.666666686534881591796875
vt 0.7666666507720947265625 0.666666686534881591796875
vt 0.800000011920928955078125 0.666666686534881591796875
vt 0.833333313465118408203125 0.666666686534881591796875
vt 0.86666667461395263671875 0.666666686534881591796875
vt 0.89999997615814208984375 0.666666686534881591796875
vt 0.933333337306976318359375 0.666666686534881591796875
vt 0.966666638851165771484375 0.666666686534881591796875
vt 1 0.666666686534881591796875
vt 0.5 1

vn 0.707106769084930419921875 0 0.707106769084930419921875
vn 0.69165480136871337890625 0.1470157802104949951171875 0.707106769084930419921875
vn 0.64597415924072265625 0.28760623931884765625 0.707106769084930419921875
vn 0.57206141948699951171875 0.415626943111419677734375 0.707106769084930419921875
vn 0.4731467664241790771484375 0.52548277378082275390625 0.707106769084930419921875
vn 0.353553354740142822265625 0.612372457981109619140625 0.707106769084930419921875
vn 0.21850799024105072021484375 0.672498524188995361328125 0.707106769084930419921875
vn 0.07391275465488433837890625 0.703233182430267333984375 0.707106769084930419921875
vn -0.07391281425952911376953125 0.703233182430267333984375 0.707106769084930419921875
vn -0.2185080349445343017578125 0.6724984645843505859375 0.707106769084930419921875
vn -0.3535534441471099853515625 0.61237239837646484375 0.707106769084930419921875
vn -0.473146855831146240234375 0.525482714176177978515625 0.707106769084930419921875
vn -0.572061479091644287109375 0.41562688350677490234375 0.707106769084930419921875
vn -0.645974218845367431640625 0.2876062095165252685546875 0.707106769084930419921875
vn -0.69165480136871337890625 0.14701570570468902587890625 0.707106769084930419921875
vn -0.707106769084930419921875 -6.1817239327410788973793387413025e-08 0.707106769084930419921875
vn -0.69165480136871337890625 -0.1470158398151397705078125 0.707106769084930419921875
vn -0.64597415924072265625 -0.287606298923492431640625 0.707106769084930419921875
vn -0.572061359882354736328125 -0.415627002716064453125 0.707106769084930419921875
vn -0.4731467068195343017578125 -0.52548277378082275390625 0.707106769084930419921875
vn -0.3535533249378204345703125 -0.612372457981109619140625 0.707106769084930419921875
vn -0.21850807964801788330078125 -0.6724984645843505859375 0.707106769084930419921875
vn -0.07391269505023956298828125 -0.703233182430267333984375 0.707106769084930419921875
vn 0.0739127099514007568359375 -0.703233182430267333984375 0.707106769084930419921875
vn 0.21850810945034027099609375 -0.6724984645843505859375 0.707106769084930419921875
vn 0.3535533249378204345703125 -0.612372457981109619140625 0.707106769084930419921875
vn 0.4731468856334686279296875 -0.525482714176177978515625 0.707106769084930419921875
vn 0.572061359882354736328125 -0.4156269729137420654296875 0.707106769084930419921875
vn 0.64597427845001220703125 -0.28760612010955810546875 0.707106769084930419921875
vn 0.69165480136871337890625 -0.1470158100128173828125 0.707106769084930419921875

f 31/32/1 1/1/1 2/2/2
f 31/32/1 2/2/2 32/33/2
f 32/33/2 2/2/2 3/3/3
f 32/33/2 3/3/3 33/34/3
f 33/34/3 3/3/3 4/4/4
f 33/34/3 4/4/4 34/35/4
f 34/35/4 4/4/4 5/5/5
f 34/35/4 5/5/5 35/36/5
f 35/36/5 5/5/5 6/6/6
f 35/36/5 6/6/6 36/37/6
f 36/37/6 6/6/6 7/7/7
f 36/37/6 7/7/7 37/38/7
f 37/38/7 7/7/7 8/8/8
f 37/38/7 8/8/8 38/39/8
f 38/39/8 8/8/8 9/9/9
f 38/39/8 9/9/9 39/40/9
f 39/40/9 9/9/9 10/10/10
f 39/40/9 10/10/10 40/41/10
f 40/41/10 10/10/10 11/11/11
f 40/41/10 11/11/11 41/42/11
f 41/42/11 11/11/11 12/12/12
f 41/42/11 12/12/12 42/43/12
f 42/43/12 12/12/12 13/13/13
f 42/43/12 13/13/13 43/44/13
f 43/44/13 13/13/13 14/14/14
f 43/44/13 14/14/14 44/45/14
f 44/45/14 14/14/14 15/15/15
f 44/45/14 15/15/15 45/46/15
f 45/46/15 15/15/15 16/16/16
f 45/46/15 16/16/16 46/47/16
f 46/47/16 16/16/16 17/17/17
f 46/47/16 17/17/17 47/48/17
f 47/48/17 17/17/17 18/18/18
f 47/48/17 18/18/18 48/49/18
f 48/49/18 18/18/18 19/19/19
f 48/49/18 19/19/19 49/50/19
f 49/50/19 19/19/19 20/20/20
f 49/50/19 20/20/20 50/51/20
f 50/51/20 20/20/20 21/21/21
f 50/51/20 21/21/21 51/52/21
f 51/52/21 21/21/21 22/22/22
f 51/52/21 22/22/22 52/53/22
f 52/53/22 22/22/22 23/23/23
f 52/53/22 23/23/23 53/54/23
f 53/54/23 23/23/23 24/24/24
f 53/54/23 24/24/24 54/55/24
f 54/55/24 24/24/24 25/25/25
f 54/55/24 25/25/25 55/56/25
f 55/56/25 25/25/25 26/26/26
f 55/56/25 26/26/26 56/57/26
f 56/57/26 26/26/26 27/27/27
f 56/57/26 27/27/27 57/58/27
f 57/58/27 27/27/27 28/28/28
f 57/58/27 28/28/28 58/59/28
f 58/59/28 28/28/28 29/29/29
f 58/59/28 29/29/29 59/60/29
f 59/60/29 29/29/29 30/30/30
f 59/60/29 30/30/30 60/61/30
f 60/61/30 30/30/30 1/31/1
f 60/61/30 1/31/1 31/62/1
f 61/63/1 31/32/1 32/33/2
f 61/63/1 32/33/2 62/64/2
f 62/64/2 32/33/2 33/34/3
f 62/64/2 33/34/3 63/65/3
f 63/65/3 33/34/3 34/35/4
f 63/65/3 34/35/4 64/66/4
f 64/66/4 34/35/4 35/36/5
f 64/66/4 35/36/5 65/67/5
f 65/67/5 35/36/5 36/37/6
f 65/67/5 36/37/6 66/68/6
f 66/68/6 36/37/6 37/38/7
f 66/68/6 37/38/7 67/69/7
f 67/69/7 37/38/7 38/39/8
f 67/69/7 38/39/8 68/70/8
f 68/70/8 38/39/8 39/40/9
f 68/70/8 39/40/9 69/71/9
f 69/71/9 39/40/9 40/41/10
f 69/71/9 40/41/10 70/72/10
f 70/72/10 40/41/10 41/42/11
f 70/72/10 41/42/11 71/73/11
f 71/73/11 41/42/11 42/43/12
f 71/73/11 42/43/12 72/74/12
f 72/74/12 42/43/12 43/44/13
f 72/74/12 43/44/13 73/75/13
f 73/75/13 43/44/13 44/45/14
f 73/75/13 44/45/14 74/76/14
f 74/76/14 44/45/14 45/46/15
f 74/76/14 45/46/15 75/77/15
f 75/77/15 45/46/15 46/47/16
f 75/77/15 46/47/16 76/78/16
f 76/78/16 46/47/16 47/48/17
f 76/78/16 47/48/17 77/79/17
f 77/79/17 47/48/17 48/49/18
f 77/79/17 48/49/18 78/80/18
f 78/80/18 48/49/18 49/50/19
f 78/80/18 49/50/19 79/81/19
f 79/81/19 49/50/19 50/51/20
f 79/81/19 50/51/20 80/82/20
f 80/82/20 50/51/20 51/52/21
f 80/82/20 51/52/21 81/83/21
f 81/83/21 51/52/21 52/53/22
f 81/83/21 52/53/22 82/84/22
f 82/84/22 52/53/22 53/54/23
f 82/84/22 53/54/23 83/85/23
f 83/85/23 53/54/23 54/55/24
f 83/85/23 54/55/24 84/86/24
f 84/86/24 54/55/24 55/56/25
f 84/86/24 55/56/25 85/87/25
f 85/87/25 55/56/25 56/57/26
f 85/87/25 56/57/26 86/88/26
f 86/88/26 56/57/26 57/58/27
f 86/88/26 57/58/27 87/89/27
f 87/89/27 57/58/27 58/59/28
f 87/89/27 58/59/28 88/90/28
f 88/90/28 58/59/28 59/60/29
f 88/90/28 59/60/29 89/91/29
f 89/91/29 59/60/29 60/61/30
f 89/91/29 60/61/30 90/92/30
f 90/92/30 60/61/30 31/62/1
f 90/92/30 31/62/1 61/93/1
f 61/63/1 62/64/2 91/94/30
f 62/64/2 63/65/3 91/94/30
f 63/65/3 64/66/4 91/94/30
f 64/66/4 65/67/5 91/94/30
f 65/67/5 66/68/6 91/94/30
f 66/68/6 67/69/7 91/94/30
f 67/69/7 68/70/8 91/94/30
f 68/70/8 69/71/9 91/94/30
f 69/71/9 70/72/10 91/94/30
f 70/72/10 71/73/11 91/94/30
f 71/73/11 72/74/12 91/94/30
f 72/74/12 73/75/13 91/94/30
f 73/75/13 74/76/14 91/94/30
f 74/76/14 75/77/15 91/94/30
f 75/77/15 76/78/16 91/94/30
f 76/78/16 77/79/17 91/94/30
f 77/79/17 78/80/18 91/94/30
f 78/80/18 79/81/19 91/94/30
f 79/81/19 80/82/20 91/94/30
f 80/82/20 81/83/21 91/94/30
f 81/83/21 82/84/22 91/94/30
f 82/84/22 83/85/23 91/94/30
f 83/85/23 84/86/24 91/94/30
f 84/86/24 85/87/25 91/94/30
f 85/87/25 86/88/26 91/94/30
f 86/88/26 87/89/27 91/94/30
f 87/89/27 88/90/28 91/94/30
f 88/90/28 89/91/29 91/94/30
f 89/91/29 90/92/30 91/94/30
f 90/92/30 61/93/1 91/94/30
