# OBJ written by Mesh::writeToOBJ()
## 88F38E07-CF6C-4962-ACD4-BB3A3A1B2E74

v 1 0 0
v 0.3090169727802276611328125 0.951056540012359619140625 0
v -0.80901706218719482421875 0.587785184383392333984375 0
v -0.8090169429779052734375 -0.58778536319732666015625 0
v 0.309017121791839599609375 -0.95105648040771484375 0
v 0.89999997615814208984375 0 0.100000001490116119384765625
v 0.27811527252197265625 0.855950891971588134765625 0.100000001490116119384765625
v -0.7281153202056884765625 0.529006659984588623046875 0.100000001490116119384765625
v -0.72811520099639892578125 -0.52900683879852294921875 0.100000001490116119384765625
v 0.27811539173126220703125 -0.855950832366943359375 0.100000001490116119384765625
v 0.800000011920928955078125 0 0.20000000298023223876953125
v 0.24721358716487884521484375 0.760845243930816650390625 0.20000000298023223876953125
v -0.647213637828826904296875 0.4702281653881072998046875 0.20000000298023223876953125
v -0.64721357822418212890625 -0.4702282845973968505859375 0.20000000298023223876953125
v 0.24721370637416839599609375 -0.760845184326171875 0.20000000298023223876953125
v 0.699999988079071044921875 0 0.300000011920928955078125
v 0.216311872005462646484375 0.665739595890045166015625 0.300000011920928955078125
v -0.56631195545196533203125 0.411449611186981201171875 0.300000011920928955078125
v -0.56631183624267578125 -0.4114497601985931396484375 0.300000011920928955078125
v 0.21631197631359100341796875 -0.665739536285400390625 0.300000011920928955078125
v 0.60000002384185791015625 0 0.4000000059604644775390625
v 0.18541018664836883544921875 0.570633947849273681640625 0.4000000059604644775390625
v -0.4854102432727813720703125 0.3526711165904998779296875 0.4000000059604644775390625
v -0.4854101836681365966796875 -0.3526712357997894287109375 0.4000000059604644775390625
v 0.18541027605533599853515625 -0.57063388824462890625 0.4000000059604644775390625
v 0.5 0 0.5
v 0.15450848639011383056640625 0.4755282700061798095703125 0.5
v -0.404508531093597412109375 0.2938925921916961669921875 0.5
v -0.40450847148895263671875 -0.293892681598663330078125 0.5
v 0.1545085608959197998046875 -0.475528240203857421875 0.5
v 0.39999997615814208984375 0 0.60000002384185791015625
v 0.123606778681278228759765625 0.3804225921630859375 0.60000002384185791015625
v -0.3236068189144134521484375 0.23511405289173126220703125 0.60000002384185791015625
v -0.3236067593097686767578125 -0.2351141273975372314453125 0.60000002384185791015625
v 0.123606838285923004150390625 -0.3804225623607635498046875 0.60000002384185791015625
v 0.300000011920928955078125 0 0.699999988079071044921875
v 0.092705093324184417724609375 0.2853169739246368408203125 0.699999988079071044921875
v -0.24270512163639068603515625 0.17633555829524993896484375 0.699999988079071044921875
v -0.24270509183406829833984375 -0.17633561789989471435546875 0.699999988079071044921875
v 0.092705138027667999267578125 -0.285316944122314453125 0.699999988079071044921875
v 0.199999988079071044921875 0 0.800000011920928955078125
v 0.0618033893406391143798828125 0.19021129608154296875 0.800000011920928955078125
v -0.16180340945720672607421875 0.117557026445865631103515625 0.800000011920928955078125
v -0.16180337965488433837890625 -0.11755706369876861572265625 0.800000011920928955078125
v 0.0618034191429615020751953125 -0.19021128118038177490234375 0.800000011920928955078125
v 0.10000002384185791015625 0 0.89999997615814208984375
v 0.0309017039835453033447265625 0.0951056778430938720703125 0.89999997615814208984375
v -0.08090172708034515380859375 0.058778531849384307861328125 0.89999997615814208984375
v -0.0809017121791839599609375 -0.0587785504758358001708984375 0.89999997615814208984375
v 0.0309017188847064971923828125 -0.095105670392513275146484375 0.89999997615814208984375
v 0 0 1

vt 0 0
vt 0.20000000298023223876953125 0
vt 0.4000000059604644775390625 0
vt 0.60000002384185791015625 0
vt 0.800000011920928955078125 0
vt 1 0
vt 0 0.100000001490116119384765625
vt 0.20000000298023223876953125 0.100000001490116119384765625
vt 0.4000000059604644775390625 0.100000001490116119384765625
vt 0.60000002384185791015625 0.100000001490116119384765625
vt 0.800000011920928955078125 0.100000001490116119384765625
vt 1 0.100000001490116119384765625
vt 0 0.20000000298023223876953125
vt 0.20000000298023223876953125 0.20000000298023223876953125
vt 0.4000000059604644775390625 0.20000000298023223876953125
vt 0.60000002384185791015625 0.20000000298023223876953125
vt 0.800000011920928955078125 0.20000000298023223876953125
vt 1 0.20000000298023223876953125
vt 0 0.300000011920928955078125
vt 0.20000000298023223876953125 0.300000011920928955078125
vt 0.4000000059604644775390625 0.300000011920928955078125
vt 0.60000002384185791015625 0.300000011920928955078125
vt 0.800000011920928955078125 0.300000011920928955078125
vt 1 0.300000011920928955078125
vt 0 0.4000000059604644775390625
vt 0.20000000298023223876953125 0.4000000059604644775390625
vt 0.4000000059604644775390625 0.4000000059604644775390625
vt 0.60000002384185791015625 0.4000000059604644775390625
vt 0.800000011920928955078125 0.4000000059604644775390625
vt 1 0.4000000059604644775390625
vt 0 0.5
vt 0.20000000298023223876953125 0.5
vt 0.4000000059604644775390625 0.5
vt 0.60000002384185791015625 0.5
vt 0.800000011920928955078125 0.5
vt 1 0.5
vt 0 0.60000002384185791015625
vt 0.20000000298023223876953125 0.60000002384185791015625
vt 0.4000000059604644775390625 0.60000002384185791015625
vt 0.60000002384185791015625 0.60000002384185791015625
vt 0.800000011920928955078125 0.60000002384185791015625
vt 1 0.60000002384185791015625
vt 0 0.699999988079071044921875
vt 0.20000000298023223876953125 0.699999988079071044921875
vt 0.4000000059604644775390625 0.699999988079071044921875
vt 0.60000002384185791015625 0.699999988079071044921875
vt 0.800000011920928955078125 0.699999988079071044921875
vt 1 0.699999988079071044921875
vt 0 0.800000011920928955078125
vt 0.20000000298023223876953125 0.800000011920928955078125
vt 0.4000000059604644775390625 0.800000011920928955078125
vt 0.60000002384185791015625 0.800000011920928955078125
vt 0.800000011920928955078125 0.800000011920928955078125
vt 1 0.800000011920928955078125
vt 0 0.89999997615814208984375
vt 0.20000000298023223876953125 0.89999997615814208984375
vt 0.4000000059604644775390625 0.89999997615814208984375
vt 0.60000002384185791015625 0.89999997615814208984375
vt 0.800000011920928955078125 0.89999997615814208984375
vt 1 0.89999997615814208984375
vt 0.5 1

vn 0.707106769084930419921875 0 0.707106769084930419921875
vn 0.21850799024105072021484375 0.672498524188995361328125 0.707106769084930419921875
vn -0.572061479091644287109375 0.41562688350677490234375 0.707106769084930419921875
vn -0.572061359882354736328125 -0.415627002716064453125 0.707106769084930419921875
vn 0.21850810945034027099609375 -0.6724984645843505859375 0.707106769084930419921875

f 6/7/1 1/1/1 2/2/2
f 6/7/1 2/2/2 7/8/2
f 7/8/2 2/2/2 3/3/3
f 7/8/2 3/3/3 8/9/3
f 8/9/3 3/3/3 4/4/4
f 8/9/3 4/4/4 9/10/4
f 9/10/4 4/4/4 5/5/5
f 9/10/4 5/5/5 10/11/5
f 10/11/5 5/5/5 1/6/1
f 10/11/5 1/6/1 6/12/1
f 11/13/1 6/7/1 7/8/2
f 11/13/1 7/8/2 12/14/2
f 12/14/2 7/8/2 8/9/3
f 12/14/2 8/9/3 13/15/3
f 13/15/3 8/9/3 9/10/4
f 13/15/3 9/10/4 14/16/4
f 14/16/4 9/10/4 10/11/5
f 14/16/4 10/11/5 15/17/5
f 15/17/5 10/11/5 6/12/1
f 15/17/5 6/12/1 11/18/1
f 16/19/1 11/13/1 12/14/2
f 16/19/1 12/14/2 17/20/2
f 17/20/2 12/14/2 13/15/3
f 17/20/2 13/15/3 18/21/3
f 18/21/3 13/15/3 14/16/4
f 18/21/3 14/16/4 19/22/4
f 19/22/4 14/16/4 15/17/5
f 19/22/4 15/17/5 20/23/5
f 20/23/5 15/17/5 11/18/1
f 20/23/5 11/18/1 16/24/1
f 21/25/1 16/19/1 17/20/2
f 21/25/1 17/20/2 22/26/2
f 22/26/2 17/20/2 18/21/3
f 22/26/2 18/21/3 23/27/3
f 23/27/3 18/21/3 19/22/4
f 23/27/3 19/22/4 24/28/4
f 24/28/4 19/22/4 20/23/5
f 24/28/4 20/23/5 25/29/5
f 25/29/5 20/23/5 16/24/1
f 25/29/5 16/24/1 21/30/1
f 26/31/1 21/25/1 22/26/2
f 26/31/1 22/26/2 27/32/2
f 27/32/2 22/26/2 23/27/3
f 27/32/2 23/27/3 28/33/3
f 28/33/3 23/27/3 24/28/4
f 28/33/3 24/28/4 29/34/4
f 29/34/4 24/28/4 25/29/5
f 29/34/4 25/29/5 30/35/5
f 30/35/5 25/29/5 21/30/1
f 30/35/5 21/30/1 26/36/1
f 31/37/1 26/31/1 27/32/2
f 31/37/1 27/32/2 32/38/2
f 32/38/2 27/32/2 28/33/3
f 32/38/2 28/33/3 33/39/3
f 33/39/3 28/33/3 29/34/4
f 33/39/3 29/34/4 34/40/4
f 34/40/4 29/34/4 30/35/5
f 34/40/4 30/35/5 35/41/5
f 35/41/5 30/35/5 26/36/1
f 35/41/5 26/36/1 31/42/1
f 36/43/1 31/37/1 32/38/2
f 36/43/1 32/38/2 37/44/2
f 37/44/2 32/38/2 33/39/3
f 37/44/2 33/39/3 38/45/3
f 38/45/3 33/39/3 34/40/4
f 38/45/3 34/40/4 39/46/4
f 39/46/4 34/40/4 35/41/5
f 39/46/4 35/41/5 40/47/5
f 40/47/5 35/41/5 31/42/1
f 40/47/5 31/42/1 36/48/1
f 41/49/1 36/43/1 37/44/2
f 41/49/1 37/44/2 42/50/2
f 42/50/2 37/44/2 38/45/3
f 42/50/2 38/45/3 43/51/3
f 43/51/3 38/45/3 39/46/4
f 43/51/3 39/46/4 44/52/4
f 44/52/4 39/46/4 40/47/5
f 44/52/4 40/47/5 45/53/5
f 45/53/5 40/47/5 36/48/1
f 45/53/5 36/48/1 41/54/1
f 46/55/1 41/49/1 42/50/2
f 46/55/1 42/50/2 47/56/2
f 47/56/2 42/50/2 43/51/3
f 47/56/2 43/51/3 48/57/3
f 48/57/3 43/51/3 44/52/4
f 48/57/3 44/52/4 49/58/4
f 49/58/4 44/52/4 45/53/5
f 49/58/4 45/53/5 50/59/5
f 50/59/5 45/53/5 41/54/1
f 50/59/5 41/54/1 46/60/1
f 46/55/1 47/56/2 51/61/5
f 47/56/2 48/57/3 51/61/5
f 48/57/3 49/58/4 51/61/5
f 49/58/4 50/59/5 51/61/5
f 50/59/5 46/60/1 51/61/5
