# OBJ written by Mesh::writeToOBJ()
## 88F38E07-CF6C-4962-ACD4-BB3A3A1B2E74

v 1 0 0
v -0.500000059604644775390625 0.866025388240814208984375 0
v -0.4999999105930328369140625 -0.866025447845458984375 0
v 1 0 1
v -0.500000059604644775390625 0.866025388240814208984375 1
v -0.4999999105930328369140625 -0.866025447845458984375 1

vt 0 0
vt 0.3333333432674407958984375 0
vt 0.666666686534881591796875 0
vt 1 0
vt 0 1
vt 0.3333333432674407958984375 1
vt 0.666666686534881591796875 1
vt 1 1

vn 1 0 0
vn -0.500000059604644775390625 0.866025388240814208984375 0
vn -0.4999999105930328369140625 -0.866025447845458984375 0

f 2/2/2 5/6/2 4/5/1
f 2/2/2 4/5/1 1/1/1
f 3/3/3 6/7/3 5/6/2
f 3/3/3 5/6/2 2/2/2
f 1/4/1 4/8/1 6/7/3
f 1/4/1 6/7/3 3/3/3
