# OBJ written by Mesh::writeToOBJ()
## 88F38E07-CF6C-4962-ACD4-BB3A3A1B2E74

v 1 0 0
v 0.3090169727802276611328125 0.951056540012359619140625 0
v -0.80901706218719482421875 0.587785184383392333984375 0
v -0.8090169429779052734375 -0.58778536319732666015625 0
v 0.309017121791839599609375 -0.95105648040771484375 0
v 1 0 0.111111111938953399658203125
v 0.3090169727802276611328125 0.951056540012359619140625 0.111111111938953399658203125
v -0.80901706218719482421875 0.587785184383392333984375 0.111111111938953399658203125
v -0.8090169429779052734375 -0.58778536319732666015625 0.111111111938953399658203125
v 0.309017121791839599609375 -0.95105648040771484375 0.111111111938953399658203125
v 1 0 0.22222222387790679931640625
v 0.3090169727802276611328125 0.951056540012359619140625 0.22222222387790679931640625
v -0.80901706218719482421875 0.587785184383392333984375 0.22222222387790679931640625
v -0.8090169429779052734375 -0.58778536319732666015625 0.22222222387790679931640625
v 0.309017121791839599609375 -0.95105648040771484375 0.22222222387790679931640625
v 1 0 0.3333333432674407958984375
v 0.3090169727802276611328125 0.951056540012359619140625 0.3333333432674407958984375
v -0.80901706218719482421875 0.587785184383392333984375 0.3333333432674407958984375
v -0.8090169429779052734375 -0.58778536319732666015625 0.3333333432674407958984375
v 0.309017121791839599609375 -0.95105648040771484375 0.3333333432674407958984375
v 1 0 0.4444444477558135986328125
v 0.3090169727802276611328125 0.951056540012359619140625 0.4444444477558135986328125
v -0.80901706218719482421875 0.587785184383392333984375 0.4444444477558135986328125
v -0.8090169429779052734375 -0.58778536319732666015625 0.4444444477558135986328125
v 0.309017121791839599609375 -0.95105648040771484375 0.4444444477558135986328125
v 1 0 0.5555555820465087890625
v 0.3090169727802276611328125 0.951056540012359619140625 0.5555555820465087890625
v -0.80901706218719482421875 0.587785184383392333984375 0.5555555820465087890625
v -0.8090169429779052734375 -0.58778536319732666015625 0.5555555820465087890625
v 0.309017121791839599609375 -0.95105648040771484375 0.5555555820465087890625
v 1 0 0.666666686534881591796875
v 0.3090169727802276611328125 0.951056540012359619140625 0.666666686534881591796875
v -0.80901706218719482421875 0.587785184383392333984375 0.666666686534881591796875
v -0.8090169429779052734375 -0.58778536319732666015625 0.666666686534881591796875
v 0.309017121791839599609375 -0.95105648040771484375 0.666666686534881591796875
v 1 0 0.77777779102325439453125
v 0.3090169727802276611328125 0.951056540012359619140625 0.77777779102325439453125
v -0.80901706218719482421875 0.587785184383392333984375 0.77777779102325439453125
v -0.8090169429779052734375 -0.58778536319732666015625 0.77777779102325439453125
v 0.309017121791839599609375 -0.95105648040771484375 0.77777779102325439453125
v 1 0 0.888888895511627197265625
v 0.3090169727802276611328125 0.951056540012359619140625 0.888888895511627197265625
v -0.80901706218719482421875 0.587785184383392333984375 0.888888895511627197265625
v -0.8090169429779052734375 -0.58778536319732666015625 0.888888895511627197265625
v 0.309017121791839599609375 -0.95105648040771484375 0.888888895511627197265625
v 1 0 1
v 0.3090169727802276611328125 0.951056540012359619140625 1
v -0.80901706218719482421875 0.587785184383392333984375 1
v -0.8090169429779052734375 -0.58778536319732666015625 1
v 0.309017121791839599609375 -0.95105648040771484375 1

vt 0 0
vt 0.20000000298023223876953125 0
vt 0.4000000059604644775390625 0
vt 0.60000002384185791015625 0
vt 0.800000011920928955078125 0
vt 1 0
vt 0 0.111111111938953399658203125
vt 0.20000000298023223876953125 0.111111111938953399658203125
vt 0.4000000059604644775390625 0.111111111938953399658203125
vt 0.60000002384185791015625 0.111111111938953399658203125
vt 0.800000011920928955078125 0.111111111938953399658203125
vt 1 0.111111111938953399658203125
vt 0 0.22222222387790679931640625
vt 0.20000000298023223876953125 0.22222222387790679931640625
vt 0.4000000059604644775390625 0.22222222387790679931640625
vt 0.60000002384185791015625 0.22222222387790679931640625
vt 0.800000011920928955078125 0.22222222387790679931640625
vt 1 0.22222222387790679931640625
vt 0 0.3333333432674407958984375
vt 0.20000000298023223876953125 0.3333333432674407958984375
vt 0.4000000059604644775390625 0.3333333432674407958984375
vt 0.60000002384185791015625 0.3333333432674407958984375
vt 0.800000011920928955078125 0.3333333432674407958984375
vt 1 0.3333333432674407958984375
vt 0 0.4444444477558135986328125
vt 0.20000000298023223876953125 0.4444444477558135986328125
vt 0.4000000059604644775390625 0.4444444477558135986328125
vt 0.60000002384185791015625 0.4444444477558135986328125
vt 0.800000011920928955078125 0.4444444477558135986328125
vt 1 0.4444444477558135986328125
vt 0 0.5555555820465087890625
vt 0.20000000298023223876953125 0.5555555820465087890625
vt 0.4000000059604644775390625 0.5555555820465087890625
vt 0.60000002384185791015625 0.5555555820465087890625
vt 0.800000011920928955078125 0.5555555820465087890625
vt 1 0.5555555820465087890625
vt 0 0.666666686534881591796875
vt 0.20000000298023223876953125 0.666666686534881591796875
vt 0.4000000059604644775390625 0.666666686534881591796875
vt 0.60000002384185791015625 0.666666686534881591796875
vt 0.800000011920928955078125 0.666666686534881591796875
vt 1 0.666666686534881591796875
vt 0 0.77777779102325439453125
vt 0.20000000298023223876953125 0.77777779102325439453125
vt 0.4000000059604644775390625 0.77777779102325439453125
vt 0.60000002384185791015625 0.77777779102325439453125
vt 0.800000011920928955078125 0.77777779102325439453125
vt 1 0.77777779102325439453125
vt 0 0.888888895511627197265625
vt 0.20000000298023223876953125 0.888888895511627197265625
vt 0.4000000059604644775390625 0.888888895511627197265625
vt 0.60000002384185791015625 0.888888895511627197265625
vt 0.800000011920928955078125 0.888888895511627197265625
vt 1 0.888888895511627197265625
vt 0 1
vt 0.20000000298023223876953125 1
vt 0.4000000059604644775390625 1
vt 0.60000002384185791015625 1
vt 0.800000011920928955078125 1
vt 1 1

vn 1 0 0
vn 0.3090169727802276611328125 0.951056540012359619140625 0
vn -0.80901706218719482421875 0.587785184383392333984375 0
vn -0.8090169429779052734375 -0.58778536319732666015625 0
vn 0.309017121791839599609375 -0.95105648040771484375 0

f 2/2/2 7/8/2 6/7/1
f 2/2/2 6/7/1 1/1/1
f 3/3/3 8/9/3 7/8/2
f 3/3/3 7/8/2 2/2/2
f 4/4/4 9/10/4 8/9/3
f 4/4/4 8/9/3 3/3/3
f 5/5/5 10/11/5 9/10/4
f 5/5/5 9/10/4 4/4/4
f 1/6/1 6/12/1 10/11/5
f 1/6/1 10/11/5 5/5/5
f 7/8/2 12/14/2 11/13/1
f 7/8/2 11/13/1 6/7/1
f 8/9/3 13/15/3 12/14/2
f 8/9/3 12/14/2 7/8/2
f 9/10/4 14/16/4 13/15/3
f 9/10/4 13/15/3 8/9/3
f 10/11/5 15/17/5 14/16/4
f 10/11/5 14/16/4 9/10/4
f 6/12/1 11/18/1 15/17/5
f 6/12/1 15/17/5 10/11/5
f 12/14/2 17/20/2 16/19/1
f 12/14/2 16/19/1 11/13/1
f 13/15/3 18/21/3 17/20/2
f 13/15/3 17/20/2 12/14/2
f 14/16/4 19/22/4 18/21/3
f 14/16/4 18/21/3 13/15/3
f 15/17/5 20/23/5 19/22/4
f 15/17/5 19/22/4 14/16/4
f 11/18/1 16/24/1 20/23/5
f 11/18/1 20/23/5 15/17/5
f 17/20/2 22/26/2 21/25/1
f 17/20/2 21/25/1 16/19/1
f 18/21/3 23/27/3 22/26/2
f 18/21/3 22/26/2 17/20/2
f 19/22/4 24/28/4 23/27/3
f 19/22/4 23/27/3 18/21/3
f 20/23/5 25/29/5 24/28/4
f 20/23/5 24/28/4 19/22/4
f 16/24/1 21/30/1 25/29/5
f 16/24/1 25/29/5 20/23/5
f 22/26/2 27/32/2 26/31/1
f 22/26/2 26/31/1 21/25/1
f 23/27/3 28/33/3 27/32/2
f 23/27/3 27/32/2 22/26/2
f 24/28/4 29/34/4 28/33/3
f 24/28/4 28/33/3 23/27/3
f 25/29/5 30/35/5 29/34/4
f 25/29/5 29/34/4 24/28/4
f 21/30/1 26/36/1 30/35/5
f 21/30/1 30/35/5 25/29/5
f 27/32/2 32/38/2 31/37/1
f 27/32/2 31/37/1 26/31/1
f 28/33/3 33/39/3 32/38/2
f 28/33/3 32/38/2 27/32/2
f 29/34/4 34/40/4 33/39/3
f 29/34/4 33/39/3 28/33/3
f 30/35/5 35/41/5 34/40/4
f 30/35/5 34/40/4 29/34/4
f 26/36/1 31/42/1 35/41/5
f 26/36/1 35/41/5 30/35/5
f 32/38/2 37/44/2 36/43/1
f 32/38/2 36/43/1 31/37/1
f 33/39/3 38/45/3 37/44/2
f 33/39/3 37/44/2 32/38/2
f 34/40/4 39/46/4 38/45/3
f 34/40/4 38/45/3 33/39/3
f 35/41/5 40/47/5 39/46/4
f 35/41/5 39/46/4 34/40/4
f 31/42/1 36/48/1 40/47/5
f 31/42/1 40/47/5 35/41/5
f 37/44/2 42/50/2 41/49/1
f 37/44/2 41/49/1 36/43/1
f 38/45/3 43/51/3 42/50/2
f 38/45/3 42/50/2 37/44/2
f 39/46/4 44/52/4 43/51/3
f 39/46/4 43/51/3 38/45/3
f 40/47/5 45/53/5 44/52/4
f 40/47/5 44/52/4 39/46/4
f 36/48/1 41/54/1 45/53/5
f 36/48/1 45/53/5 40/47/5
f 42/50/2 47/56/2 46/55/1
f 42/50/2 46/55/1 41/49/1
f 43/51/3 48/57/3 47/56/2
f 43/51/3 47/56/2 42/50/2
f 44/52/4 49/58/4 48/57/3
f 44/52/4 48/57/3 43/51/3
f 45/53/5 50/59/5 49/58/4
f 45/53/5 49/58/4 44/52/4
f 41/54/1 46/60/1 50/59/5
f 41/54/1 50/59/5 45/53/5
