# OBJ written by Mesh::writeToOBJ()

v 1.5 0 8.7422776573475857730954885482788e-08
v 0.750000059604644775390625 0 -0.4330127239227294921875
v 0.750000059604644775390625 0 0.4330127537250518798828125
v -0.75000011920928955078125 1.29903805255889892578125 8.7422776573475857730954885482788e-08
v -0.3750000894069671630859375 0.64951908588409423828125 -0.4330127239227294921875
v -0.3750000894069671630859375 0.64951908588409423828125 0.4330127537250518798828125
v -0.74999988079071044921875 -1.2990381717681884765625 8.7422776573475857730954885482788e-08
v -0.3749999701976776123046875 -0.649519145488739013671875 -0.4330127239227294921875
v -0.3749999701976776123046875 -0.649519145488739013671875 0.4330127537250518798828125

vt 0 0
vt 0.3333333432674407958984375 0
vt 0.666666686534881591796875 0
vt 1 0
vt 0 0.3333333432674407958984375
vt 0.3333333432674407958984375 0.3333333432674407958984375
vt 0.666666686534881591796875 0.3333333432674407958984375
vt 1 0.3333333432674407958984375
vt 0 0.666666686534881591796875
vt 0.3333333432674407958984375 0.666666686534881591796875
vt 0.666666686534881591796875 0.666666686534881591796875
vt 1 0.666666686534881591796875
vt 0 1
vt 0.3333333432674407958984375 1
vt 0.666666686534881591796875 1
vt 1 1

vn 1 0 1.7484555314695171546190977096558e-07
vn -0.4999999105930328369140625 -0 -0.866025447845458984375
vn -0.4999998509883880615234375 -0 0.866025507450103759765625
vn -0.500000059604644775390625 0.866025388240814208984375 1.7484555314695171546190977096558e-07
vn 0.24999998509883880615234375 -0.43301260471343994140625 -0.866025447845458984375
vn 0.24999995529651641845703125 -0.4330125749111175537109375 0.866025507450103759765625
vn -0.4999999105930328369140625 -0.866025447845458984375 1.7484555314695171546190977096558e-07
vn 0.249999940395355224609375 0.4330126941204071044921875 -0.86602556705474853515625
vn 0.24999988079071044921875 0.43301260471343994140625 0.866025507450103759765625

f 1/1/1 2/2/2 5/6/5
f 1/1/1 5/6/5 4/5/4
f 2/2/2 3/3/3 6/7/6
f 2/2/2 6/7/6 5/6/5
f 3/3/3 1/4/1 4/8/4
f 3/3/3 4/8/4 6/7/6
f 4/5/4 5/6/5 8/10/8
f 4/5/4 8/10/8 7/9/7
f 5/6/5 6/7/6 9/11/9
f 5/6/5 9/11/9 8/10/8
f 6/7/6 4/8/4 7/12/7
f 6/7/6 7/12/7 9/11/9
f 7/9/7 8/10/8 2/14/2
f 7/9/7 2/14/2 1/13/1
f 8/10/8 9/11/9 3/15/3
f 8/10/8 3/15/3 2/14/2
f 9/11/9 7/12/7 1/16/1
f 9/11/9 1/16/1 3/15/3
